<?xml version="1.0" encoding="utf-8"?>
<!-- Generator: Adobe Illustrator 22.0.1, SVG Export Plug-In . SVG Version: 6.00 Build 0)  -->
<svg version="1.1" id="Layer_1" xmlns="http://www.w3.org/2000/svg" xmlns:xlink="http://www.w3.org/1999/xlink" x="0px" y="0px"
	 viewBox="0 0 1008.1 848.4" style="enable-background:new 0 0 1008.1 848.4;" xml:space="preserve">
<g>
	<path d="M114.2,738.4c-2.1,0-3.3-1.2-3.8-3.3l-6.6-34.3H62l-6.3,34.3c-0.5,2.1-1.6,3.3-3.8,3.3H26.8c-2.6,0-3.8-1.4-3.1-4l39-180.6
		c0.5-2.3,1.9-3.3,4-3.3h32.7c2.1,0,3.5,0.9,4,3.3l39,180.6c0.5,2.6-0.5,4-3.3,4H114.2z M82.9,591.6l-15,82H98L82.9,591.6z"/>
	<path d="M248.1,550.5c2.6,0,4.7,2.1,4.7,4.7v149.4c0,22.1-11.7,33.8-33.8,33.8h-26.3c-22.1,0-33.8-11.7-33.8-33.8V555.2
		c0-2.6,2.1-4.7,4.7-4.7H186c2.6,0,4.7,2.1,4.7,4.7V698c0,6.3,3.3,9.4,9.4,9.4h12.2c6.1,0,9.4-3.1,9.4-9.4V555.2
		c0-2.6,2.1-4.7,4.7-4.7H248.1z"/>
	<path d="M276.2,554.2c0-2.3,1.2-3.8,3.8-3.8h56.4c22.1,0,33.8,12,33.8,34.1v120c0,22.1-11.7,33.8-33.8,33.8H280
		c-2.6,0-3.8-1.2-3.8-3.8V554.2z M329.8,707.4c6.1,0,9.4-3.1,9.4-9.4V591.1c0-6.3-3.3-9.6-9.4-9.6h-21.6v125.9H329.8z"/>
	<path d="M421.9,550.5c2.3,0,3.8,1.4,3.8,3.8v180.4c0,2.3-1.4,3.8-3.8,3.8h-24.4c-2.6,0-3.8-1.4-3.8-3.8V554.2
		c0-2.3,1.2-3.8,3.8-3.8H421.9z"/>
	<path d="M449.1,584.3c0-22.1,11.7-33.8,33.8-33.8h26.3c22.1,0,33.8,11.7,33.8,33.8v120.3c0,22.1-11.7,33.8-33.8,33.8h-26.3
		c-22.1,0-33.8-11.7-33.8-33.8V584.3z M503.4,708.1c6.1,0,9.4-3.1,9.4-9.4V590.2c0-6.1-3.3-9.4-9.4-9.4h-13.6
		c-6.1,0-9.4,3.3-9.4,9.4v108.5c0,6.3,3.3,9.4,9.4,9.4H503.4z"/>
	<path d="M713.6,738.4c-2.1,0-3.3-1.2-3.8-3.3l-6.6-34.3h-41.8l-6.3,34.3c-0.5,2.1-1.6,3.3-3.8,3.3h-25.1c-2.6,0-3.8-1.4-3.1-4
		l39-180.6c0.5-2.3,1.9-3.3,4-3.3h32.7c2.1,0,3.5,0.9,4,3.3l39,180.6c0.5,2.6-0.5,4-3.3,4H713.6z M682.4,591.6l-15,82h30.1
		L682.4,591.6z"/>
	<path d="M859.5,641.6c0,15.7-5.9,26.1-17.1,31l16.2,61.5c0.7,2.8-0.7,4.2-3.3,4.2h-24.4c-2.3,0-3.5-1.2-4-3.3l-15.7-59.7h-16.2
		v59.2c0,2.3-1.4,3.8-3.8,3.8h-24.4c-2.3,0-3.8-1.4-3.8-3.8V554.2c0-2.3,1.4-3.8,3.8-3.8h59c22.1,0,33.8,11.7,33.8,33.8V641.6z
		 M818.1,644.4c6.1,0,9.4-3.3,9.4-9.4v-44.2c0-6.1-3.3-9.4-9.4-9.4h-23.3v63H818.1z"/>
	<path d="M977.1,609.6c0,2.3-1.4,3.8-3.8,3.8h-23.5c-2.6,0-3.8-1.4-3.8-3.8v-18.8c0-6.1-3.3-9.4-9.4-9.4h-12.2
		c-6.3,0-9.4,3.3-9.4,9.4V698c0,6.3,3.3,9.4,9.4,9.4h12.2c6.1,0,9.4-3.1,9.4-9.4v-18.8c0-2.3,1.2-3.8,3.8-3.8h23.5
		c2.3,0,3.8,1.4,3.8,3.8v25.4c0,22.1-12,33.8-33.8,33.8H917c-22.1,0-34.1-11.7-34.1-33.8V584.3c0-22.1,12-33.8,34.1-33.8h26.3
		c21.8,0,33.8,11.7,33.8,33.8V609.6z"/>
</g>
<g>
	<polygon points="539.1,465 587.6,520.2 726.8,520.2 608.7,385.6 	"/>
	<polygon points="276.1,520.2 415.4,520.2 427.4,506.6 571,342.7 501.5,263.4 	"/>
	<polygon points="200.4,520.2 501.5,177.1 608.9,299.5 678.5,220.1 501.5,18.4 61.1,520.2 	"/>
	<polygon points="802.6,520.2 941.8,520.2 716.1,263 646.5,342.4 	"/>
</g>
<g>
	<path d="M38.8,774.9v14.9h8.8v6.1h-8.8v15.8h11.8v6.7H31.9v-50.2h18.7v6.7H38.8z"/>
	<path d="M85.6,768.2c1.9,11.1,3.6,22.2,5.4,33.3l5.4-33.3h6.9l-8.7,50.2h-7.3l-8.7-50.2H85.6z"/>
	<path d="M139.6,774.9v14.9h8.8v6.1h-8.8v15.8h11.8v6.7h-18.7v-50.2h18.7v6.7H139.6z"/>
	<path d="M198.3,818.4l-9-29.6v29.6h-6.9v-50.2h6.5l9,30.2v-30.2h7v50.2H198.3z"/>
	<path d="M248.1,774.9v43.5h-7v-43.5h-6.6v-6.7h20.3v6.7H248.1z"/>
	<path d="M319.8,818.4v-50.2h7v21.6h8v-21.6h6.9v50.2h-6.9v-22.5h-8v22.5H319.8z"/>
	<path d="M373.7,818.4v-50.2h6.9v50.2H373.7z"/>
	<path d="M412.7,768.2h10.7c6.6,0,11.1,4.3,11.1,12.3v11.8c0,5.6-2.1,9-5.5,10.7l5.7,15.5h-7.6c-1-2.4-3.6-11.1-4.6-13.5h-2.9v13.5
		h-7V768.2z M419.6,798.2h2.8c2.7,0,5.1-0.9,5.1-6.4v-11.4c0-4.5-2.5-5.6-5.1-5.6h-2.8V798.2z"/>
	<path d="M472.4,774.9v14.9h8.8v6.1h-8.8v15.8h11.8v6.7h-18.7v-50.2h18.7v6.7H472.4z"/>
	<path d="M570.1,778.9h-6.8c0-3.5-2.1-4.7-4.1-4.7c-2.1,0-3.8,1.3-3.8,3.7c0,1.7,0.6,3.6,2.2,6l9,13.2c3.3,4.8,4,7.7,4,11.3
		c0,6.4-4.6,10.6-11.2,10.6s-11.4-4.4-11.4-11.6h6.9c0,3.7,2.3,4.8,4.6,4.8s4.2-1.4,4.2-4.1c0-1.9-0.5-3.3-2.5-6.3l-9-13.2
		c-3.3-4.9-3.8-7.8-3.8-10.7c0-6.3,4.6-10.2,10.9-10.2C565.4,767.7,570.1,772,570.1,778.9z"/>
	<path d="M599.4,807.4v-28c0-6.8,4.6-11.6,11.2-11.6c6.6,0,11.2,4.8,11.2,11.6v28c0,6.8-4.6,11.5-11.2,11.5
		C604,818.9,599.4,814.1,599.4,807.4z M606.3,779.1v28.5c0,3.5,2.1,4.6,4.3,4.6c2.1,0,4.2-1.1,4.2-4.6v-28.5c0-3.5-2-4.6-4.2-4.6
		C608.3,774.4,606.3,775.6,606.3,779.1z"/>
	<path d="M653.3,818.4v-50.2h7v43.5H671v6.7H653.3z"/>
	<path d="M721,768.2v39.2c0,6.8-4.6,11.5-11.1,11.5c-6.6,0-11.2-4.8-11.2-11.5v-39.2h6.9v39.5c0,3.6,2.3,4.6,4.3,4.6
		c2.1,0,4.2-1.1,4.2-4.6v-39.5H721z"/>
	<path d="M763.8,774.9v43.5h-7v-43.5h-6.6v-6.7h20.3v6.7H763.8z"/>
	<path d="M800.1,818.4v-50.2h6.9v50.2H800.1z"/>
	<path d="M838.7,807.4v-28c0-6.8,4.6-11.6,11.2-11.6c6.6,0,11.2,4.8,11.2,11.6v28c0,6.8-4.6,11.5-11.2,11.5
		C843.2,818.9,838.7,814.1,838.7,807.4z M845.6,779.1v28.5c0,3.5,2.1,4.6,4.3,4.6c2.1,0,4.2-1.1,4.2-4.6v-28.5c0-3.5-2-4.6-4.2-4.6
		C847.6,774.4,845.6,775.6,845.6,779.1z"/>
	<path d="M908.5,818.4l-9-29.6v29.6h-6.9v-50.2h6.5l9,30.2v-30.2h7v50.2H908.5z"/>
	<path d="M966.6,778.9h-6.8c0-3.5-2.1-4.7-4.1-4.7c-2.1,0-3.8,1.3-3.8,3.7c0,1.7,0.6,3.6,2.2,6l9,13.2c3.3,4.8,4,7.7,4,11.3
		c0,6.4-4.6,10.6-11.2,10.6s-11.4-4.4-11.4-11.6h6.9c0,3.7,2.3,4.8,4.6,4.8s4.2-1.4,4.2-4.1c0-1.9-0.5-3.3-2.5-6.3l-9-13.2
		c-3.3-4.9-3.8-7.8-3.8-10.7c0-6.3,4.6-10.2,10.9-10.2C962,767.7,966.6,772,966.6,778.9z"/>
</g>
</svg>
